<svg width="178" height="171" viewBox="0 0 178 171" fill="none" xmlns="http://www.w3.org/2000/svg">
<path d="M164.725 115.912C172.106 96.647 172.229 75.3549 165.07 56.0059L144.177 76.5625C145.714 86.6832 144.624 97.1019 140.913 106.788C135.746 120.274 125.85 131.42 113.072 138.148C100.293 144.876 85.5039 146.727 71.4614 143.356C57.4189 139.985 45.0818 131.621 36.7506 119.825C28.4194 108.029 24.6628 93.6052 26.1813 79.2437C27.6998 64.8822 34.3897 51.5632 45.0036 41.7701C55.6174 31.9771 69.4308 26.3785 83.8678 26.0184C98.3049 25.6583 111.38 29.5612 122.469 38.8129L140.805 21.2327C124.964 8.01603 103.856 0.0118749 83.2319 0.526323C62.6076 1.04077 42.8743 9.0387 27.7116 23.0288C12.5489 37.0188 2.99193 56.046 0.822674 76.5625C-1.34658 97.0789 4.01999 117.684 15.9217 134.536C27.8234 151.387 45.4478 163.335 65.5085 168.151C85.5693 172.967 106.697 170.323 124.952 160.712C143.207 151.1 157.343 135.177 164.725 115.912Z" fill="#404B7C"/>
<path d="M46.0997 67.836L85.8107 106.547L166.073 26.2849" stroke="#404B7C" stroke-width="23" stroke-linecap="round" stroke-linejoin="round"/>
</svg>
