<svg width="32" height="45" viewBox="0 0 32 45" fill="none" xmlns="http://www.w3.org/2000/svg">
<path d="M31 35V6.95L16 2L1 6.95V35L16.4286 43.25L31 35Z" fill="#D1DCED" stroke="#9AB3DA" stroke-width="2"/>
<path d="M12.915 21.5966V13.2852C12.915 11.6284 14.2582 10.2852 15.915 10.2852H16.0849C17.7418 10.2852 19.0849 11.6284 19.0849 13.2852V21.5966" stroke="#9AB3DA"/>
<rect x="7.7735" y="20.5684" width="16.453" height="11.3114" rx="1" fill="#404B7C"/>
<path fill-rule="evenodd" clip-rule="evenodd" d="M16.5484 22.4193H15.4516V25.8035C14.8125 26.0294 14.3547 26.6388 14.3547 27.3552C14.3547 28.2639 15.0913 29.0005 16 29.0005C16.9086 29.0005 17.6453 28.2639 17.6453 27.3552C17.6453 26.6388 17.1874 26.0294 16.5484 25.8035V22.4193Z" fill="#9AB3DA"/>
</svg>
